    <svg width="94" height="55" viewBox="0 0 94 55" fill="none" xmlns="http://www.w3.org/2000/svg">
        <path d="M33 3C33 1.89543 33.8954 1 35 1H49C50.1046 1 51 1.89543 51 3V6H33V3Z" fill="#C4C4C4" fill-opacity="0.8"/>
        <g filter="url(#filter0_d)">
        <rect x="4.1" y="0.1" width="85.8" height="46.8" rx="1.9" stroke="black" stroke-width="0.2"/>
        </g>
        <line x1="4" y1="5.9" x2="14" y2="5.9" stroke="black" stroke-width="0.2"/>
        <circle cx="6" cy="3" r="1" fill="#FF0000"/>
        <circle cx="9" cy="3" r="1" fill="#FFF500"/>
        <circle cx="12" cy="3" r="1" fill="#35E718"/>
        <line x1="29.0448" y1="2.95662" x2="30.0272" y2="3.97392" stroke="black" stroke-width="0.1"/>
        <line x1="48.0354" y1="2.96464" x2="49.0354" y2="3.96464" stroke="black" stroke-width="0.1"/>
        <line x1="30.0354" y1="3.03536" x2="29.0354" y2="4.03536" stroke="black" stroke-width="0.1"/>
        <line x1="49.0354" y1="3.03536" x2="48.0354" y2="4.03536" stroke="black" stroke-width="0.1"/>
        <path d="M14 6V3C14 1.89543 14.8954 1 16 1H30C31.1046 1 32 1.89543 32 3V6" stroke="black" stroke-width="0.2"/>
        <line x1="32" y1="5.9" x2="90" y2="5.9" stroke="black" stroke-width="0.2"/>
        <path d="M16.5986 3.79199L16.9697 3.07812H17.1826L16.6924 3.96973V4.5H16.5049V3.96973L16.0146 3.07812H16.2295L16.5986 3.79199ZM17.2256 3.96191C17.2256 3.8584 17.2458 3.7653 17.2861 3.68262C17.3271 3.59993 17.3838 3.53613 17.4561 3.49121C17.529 3.44629 17.612 3.42383 17.7051 3.42383C17.849 3.42383 17.9652 3.47363 18.0537 3.57324C18.1429 3.67285 18.1875 3.80534 18.1875 3.9707V3.9834C18.1875 4.08626 18.1676 4.17871 18.1279 4.26074C18.0889 4.34212 18.0326 4.4056 17.959 4.45117C17.8861 4.49674 17.8021 4.51953 17.707 4.51953C17.5638 4.51953 17.4476 4.46973 17.3584 4.37012C17.2699 4.27051 17.2256 4.13867 17.2256 3.97461V3.96191ZM17.4072 3.9834C17.4072 4.10059 17.4342 4.19466 17.4883 4.26562C17.543 4.33659 17.6159 4.37207 17.707 4.37207C17.7988 4.37207 17.8717 4.33626 17.9258 4.26465C17.9798 4.19238 18.0068 4.09147 18.0068 3.96191C18.0068 3.84603 17.9792 3.75228 17.9238 3.68066C17.8691 3.6084 17.7962 3.57227 17.7051 3.57227C17.6159 3.57227 17.5439 3.60775 17.4893 3.67871C17.4346 3.74967 17.4072 3.85124 17.4072 3.9834ZM19.0664 4.39551C18.9961 4.47819 18.8929 4.51953 18.7568 4.51953C18.6442 4.51953 18.5583 4.48698 18.499 4.42188C18.4404 4.35612 18.4108 4.25911 18.4102 4.13086V3.44336H18.5908V4.12598C18.5908 4.28613 18.6559 4.36621 18.7861 4.36621C18.9242 4.36621 19.016 4.31478 19.0615 4.21191V3.44336H19.2422V4.5H19.0703L19.0664 4.39551ZM19.7627 3.1875V3.44336H19.96V3.58301H19.7627V4.23828C19.7627 4.2806 19.7715 4.3125 19.7891 4.33398C19.8066 4.35482 19.8366 4.36523 19.8789 4.36523C19.8997 4.36523 19.9284 4.36133 19.9648 4.35352V4.5C19.9173 4.51302 19.8711 4.51953 19.8262 4.51953C19.7454 4.51953 19.6846 4.49512 19.6436 4.44629C19.6025 4.39746 19.582 4.32812 19.582 4.23828V3.58301H19.3896V3.44336H19.582V3.1875H19.7627ZM20.8242 4.39551C20.7539 4.47819 20.6507 4.51953 20.5146 4.51953C20.402 4.51953 20.3161 4.48698 20.2568 4.42188C20.1982 4.35612 20.1686 4.25911 20.168 4.13086V3.44336H20.3486V4.12598C20.3486 4.28613 20.4137 4.36621 20.5439 4.36621C20.682 4.36621 20.7738 4.31478 20.8193 4.21191V3.44336H21V4.5H20.8281L20.8242 4.39551ZM22.1699 3.9834C22.1699 4.14486 22.1328 4.27474 22.0586 4.37305C21.9844 4.4707 21.8848 4.51953 21.7598 4.51953C21.6263 4.51953 21.5231 4.47233 21.4502 4.37793L21.4414 4.5H21.2754V3H21.4561V3.55957C21.529 3.46908 21.6296 3.42383 21.7578 3.42383C21.8861 3.42383 21.9867 3.47233 22.0596 3.56934C22.1331 3.66634 22.1699 3.79915 22.1699 3.96777V3.9834ZM21.9893 3.96289C21.9893 3.83984 21.9655 3.74479 21.918 3.67773C21.8704 3.61068 21.8021 3.57715 21.7129 3.57715C21.5938 3.57715 21.5081 3.63249 21.4561 3.74316V4.2002C21.5114 4.31087 21.5977 4.36621 21.7148 4.36621C21.8014 4.36621 21.8688 4.33268 21.917 4.26562C21.9652 4.19857 21.9893 4.09766 21.9893 3.96289ZM22.8369 4.51953C22.6937 4.51953 22.5771 4.47266 22.4873 4.37891C22.3975 4.28451 22.3525 4.15853 22.3525 4.00098V3.96777C22.3525 3.86296 22.3724 3.76953 22.4121 3.6875C22.4525 3.60482 22.5085 3.54036 22.5801 3.49414C22.6523 3.44727 22.7305 3.42383 22.8145 3.42383C22.9518 3.42383 23.0586 3.46908 23.1348 3.55957C23.2109 3.65007 23.249 3.77962 23.249 3.94824V4.02344H22.5332C22.5358 4.1276 22.5661 4.21191 22.624 4.27637C22.6826 4.34017 22.7568 4.37207 22.8467 4.37207C22.9105 4.37207 22.9645 4.35905 23.0088 4.33301C23.0531 4.30697 23.0918 4.27246 23.125 4.22949L23.2354 4.31543C23.1468 4.4515 23.014 4.51953 22.8369 4.51953ZM22.8145 3.57227C22.7415 3.57227 22.6803 3.59896 22.6309 3.65234C22.5814 3.70508 22.5508 3.7793 22.5391 3.875H23.0684V3.86133C23.0632 3.76953 23.0384 3.69857 22.9941 3.64844C22.9499 3.59766 22.89 3.57227 22.8145 3.57227Z" fill="black"/>
        <rect x="8" y="9" width="23" height="12" fill="#C4C4C4"/>
        <rect x="8" y="28" width="23" height="12" fill="#C4C4C4"/>
        <rect x="35" y="9" width="23" height="12" fill="#C4C4C4"/>
        <rect x="35" y="28" width="23" height="12" fill="#C4C4C4"/>
        <rect x="62" y="9" width="23" height="12" fill="#C4C4C4"/>
        <rect x="62" y="28" width="23" height="12" fill="#C4C4C4"/>
        <circle cx="9.5" cy="23.5" r="1.5" fill="#C4C4C4"/>
        <circle cx="36.5" cy="23.5" r="1.5" fill="#C4C4C4"/>
        <circle cx="63.5" cy="23.5" r="1.5" fill="#C4C4C4"/>
        <circle cx="9.5" cy="42.5" r="1.5" fill="#C4C4C4"/>
        <circle cx="36.5" cy="42.5" r="1.5" fill="#C4C4C4"/>
        <circle cx="64.5" cy="42.5" r="1.5" fill="#C4C4C4"/>
        <rect x="12" y="22" width="14" height="1" fill="#C4C4C4"/>
        <rect x="39" y="22" width="14" height="1" fill="#C4C4C4"/>
        <rect x="66" y="22" width="14" height="1" fill="#C4C4C4"/>
        <rect x="12" y="41" width="14" height="1" fill="#C4C4C4"/>
        <rect x="39" y="41" width="14" height="1" fill="#C4C4C4"/>
        <rect x="67" y="41" width="14" height="1" fill="#C4C4C4"/>
        <rect x="12" y="23.5" width="10" height="1" fill="#C4C4C4"/>
        <rect x="39" y="23.5" width="10" height="1" fill="#C4C4C4"/>
        <rect x="66" y="23.5" width="10" height="1" fill="#C4C4C4"/>
        <rect x="12" y="42.5" width="10" height="1" fill="#C4C4C4"/>
        <rect x="39" y="42.5" width="10" height="1" fill="#C4C4C4"/>
        <rect x="67" y="42.5" width="10" height="1" fill="#C4C4C4"/>
        <defs>
        <filter id="filter0_d" x="0" y="0" width="94" height="55" filterUnits="userSpaceOnUse" color-interpolation-filters="sRGB">
        <feFlood flood-opacity="0" result="BackgroundImageFix"/>
        <feColorMatrix in="SourceAlpha" type="matrix" values="0 0 0 0 0 0 0 0 0 0 0 0 0 0 0 0 0 0 127 0"/>
        <feOffset dy="4"/>
        <feGaussianBlur stdDeviation="2"/>
        <feColorMatrix type="matrix" values="0 0 0 0 0 0 0 0 0 0 0 0 0 0 0 0 0 0 0.25 0"/>
        <feBlend mode="normal" in2="BackgroundImageFix" result="effect1_dropShadow"/>
        <feBlend mode="normal" in="SourceGraphic" in2="effect1_dropShadow" result="shape"/>
        </filter>
        </defs>
        </svg>